HIERARCHY
ROOT Hips
{
	OFFSET 0.000000 0.000000 0.000000 
	CHANNELS 6 Xposition Yposition Zposition Yrotation Zrotation Xrotation 
	JOINT Lumbar
	{
		OFFSET 0.000000 0.000000 0.000000 
		CHANNELS 3 Zrotation Xrotation Yrotation
		JOINT Neck
		{
			OFFSET 0.000000 0.445665 0.000000 
			CHANNELS 3 Zrotation Xrotation Yrotation
			End Site
			{
				OFFSET 0.000000 0.227535 0.000000 
			}
		}
		JOINT RightShoulder
		{
			OFFSET 0.019635 0.377685 0.194865 
			CHANNELS 3 Zrotation Xrotation Yrotation
			JOINT RightElbow
			{
				OFFSET 0.000000 -0.243375 0.000000 
				CHANNELS 2 Zrotation Yrotation
				JOINT RightWrist
				{
					OFFSET 0.000000 -0.264825 0.000000 
					CHANNELS 2 Zrotation Xrotation
					End Site
					{
						OFFSET 0.006600 -0.176220 0.000990 
					}
				}
			}
		}
		JOINT LeftShoulder
		{
			OFFSET 0.019635 0.377685 -0.194865 
			CHANNELS 3 Zrotation Xrotation Yrotation
			JOINT LeftElbow
			{
				OFFSET 0.000000 -0.243375 0.000000 
				CHANNELS 2 Zrotation Yrotation
				JOINT LeftWrist
				{
					OFFSET 0.000000 -0.264825 0.000000 
					CHANNELS 2 Zrotation Xrotation
					End Site
					{
						OFFSET 0.006600 -0.176220 -0.000990 
					}
				}
			}
		}
	}
	JOINT RightHip
	{
		OFFSET 0.052140 -0.069960 0.075570 
		CHANNELS 3 Zrotation Xrotation Yrotation
		JOINT RightKnee
		{
			OFFSET 0.000000 -0.402270 0.000000 
			CHANNELS 1 Zrotation
			JOINT RightAnkle
			{
				OFFSET 0.000000 -0.404085 0.000000 
				CHANNELS 3 Zrotation Xrotation Yrotation
				End Site
				{
					OFFSET 0.204105 -0.089430 0.008415 
				}
			}
		}
	}
	JOINT LeftHip
	{
		OFFSET 0.052140 -0.069960 -0.075570 
		CHANNELS 3 Zrotation Xrotation Yrotation
		JOINT LeftKnee
		{
			OFFSET 0.000000 -0.402270 0.000000 
			CHANNELS 1 Zrotation
			JOINT LeftAnkle
			{
				OFFSET 0.000000 -0.404085 0.000000 
				CHANNELS 3 Zrotation Xrotation Yrotation
				End Site
				{
					OFFSET 0.204105 -0.089430 -0.008415 
				}
			}
		}
	}
}
MOTION
Frames: 24
Frame Time: 0.02
-0.17881 -0.0297 -0.17711 27.31146 -16.26437 5.07366 43.34014 3.21546 6.66978 -10.25211 -17.47712 -2.1194 -61.82931 -67.39265 36.62644 116.9206 108.1957 -34.42987 -6.41952 -9.26206 118.75754 -3.30701 24.20542 -116.17828 -11.06109 13.9584 37.09461 -25.00389 9.15757 -30.76569 -9.33507 -4.06801 -4.36138 34.70109 -7.54086 24.65925 -28.09659 -6.55421 0.38383 2.44051
-0.17948 -0.02977 -0.17628 27.26027 -16.2218 5.08688 43.17816 3.19007 6.66019 -10.32949 -17.52352 -2.11943 -61.83973 -67.39122 36.70695 116.92981 108.15606 -34.57815 -6.35519 -9.09947 118.52508 -3.49289 24.26688 -113.39893 -10.21557 14.27175 37.15914 -24.99532 9.13741 -30.79837 -9.32223 -4.05781 -4.35598 34.71993 -7.50126 24.691 -28.10932 -6.55586 0.38314 2.44042
-0.18018 -0.02979 -0.17539 27.20522 -16.20098 5.09055 43.01579 3.1712 6.65811 -10.40284 -17.56753 -2.11945 -61.83872 -67.38604 36.8049 116.94236 108.08693 -34.72047 -6.28653 -8.9301 118.28322 -3.7022 24.35497 -110.06207 -9.21828 14.65635 37.24794 -24.98667 9.07321 -30.82013 -9.30874 -4.04392 -4.34869 34.76092 -7.44258 24.74733 -28.11826 -6.56039 0.38 2.43919
-0.18086 -0.02983 -0.17452 27.15322 -16.17144 5.09752 42.85497 3.14898 6.65082 -10.47766 -17.61125 -2.11948 -61.84092 -67.38548 36.89583 116.95412 108.02737 -34.86129 -6.22067 -8.76896 118.05039 -3.89948 24.42993 -107.07616 -8.31736 14.99831 37.32463 -24.97736 9.0275 -30.84535 -9.29564 -4.03177 -4.34231 34.79233 -7.39239 24.79079 -28.12802 -6.56374 0.37785 2.43844
-0.18155 -0.02988 -0.17365 27.09608 -16.1369 5.10925 42.68794 3.12808 6.65144 -10.55422 -17.66083 -2.11951 -61.84661 -67.37546 36.98978 116.9629 107.97212 -35.01599 -6.14902 -8.58568 117.79614 -4.10217 24.50964 -103.67432 -7.29933 15.38424 37.40581 -24.97083 8.98998 -30.87708 -9.28215 -4.01941 -4.3358 34.82175 -7.34324 24.8414 -28.14176 -6.56657 0.37614 2.43781
-0.18223 -0.02989 -0.17278 27.0486 -16.11814 5.10867 42.53384 3.10614 6.63736 -10.62611 -17.69764 -2.11953 -61.84056 -67.38451 37.08307 116.97862 107.89695 -35.13724 -6.0886 -8.44763 117.58503 -4.29801 24.58546 -101.00581 -6.4892 15.69535 37.48378 -24.95856 8.92433 -30.89265 -9.26935 -4.0066 -4.32907 34.86086 -7.2873 24.88296 -28.14628 -6.57115 0.37298 2.43669
-0.18284 -0.02978 -0.17188 27.02864 -16.1357 5.07645 42.41655 3.07939 6.57956 -10.686 -17.69941 -2.11954 -61.85313 -67.42902 37.11597 117.01292 107.88645 -35.22844 -6.06934 -8.42897 117.49233 -4.48546 24.6461 -100.52547 -6.297 15.78123 37.54273 -24.9302 8.79124 -30.86541 -9.25811 -3.99347 -4.32221 34.9175 -7.2173 24.89316 -28.12569 -6.57999 0.36619 2.4344
-0.18344 -0.02963 -0.17098 27.01846 -16.16877 5.03217 42.31219 3.0515 6.50702 -10.74121 -17.68848 -2.11954 -61.84886 -67.49464 37.15357 117.054 107.84423 -35.27895 -6.06076 -8.45735 117.44403 -4.66247 24.70153 -100.79841 -6.31834 15.78941 37.59842 -24.89612 8.63142 -30.8224 -9.24767 -3.98001 -4.31519 34.9838 -7.1412 24.8933 -28.09602 -6.59045 0.35807 2.43168
-0.18405 -0.0295 -0.17009 27.0039 -16.19591 4.99329 42.20128 3.02437 6.44184 -10.79876 -17.68354 -2.11954 -61.8191 -67.56306 37.22614 117.0919 107.73926 -35.30589 -6.04115 -8.46886 117.37758 -4.83388 24.7579 -100.70964 -6.23774 15.83392 37.65826 -24.86483 8.48364 -30.78712 -9.23715 -3.96667 -4.3082 35.04803 -7.06768 24.89854 -28.07084 -6.60011 0.35067 2.42919
-0.18464 -0.02936 -0.16917 26.98915 -16.21891 4.95421 42.09305 2.99633 6.37362 -10.85577 -17.67749 -2.11954 -61.91934 -67.58301 37.15318 117.13051 107.93724 -35.49842 -6.04543 -8.46114 117.30242 -5.0497 24.82104 -100.68259 -6.17231 15.8769 37.70743 -24.83271 8.33387 -30.74906 -9.22532 -3.9533 -4.30126 35.1031 -6.99382 24.90318 -28.044 -6.61022 0.34264 2.42649
-0.18527 -0.02924 -0.1683 26.97692 -16.25418 4.91311 41.9825 2.96996 6.3088 -10.91224 -17.6709 -2.11955 -61.75672 -67.70406 37.37128 117.16898 107.52399 -35.35108 -6.00504 -8.5047 117.25581 -5.17031 24.86875 -100.71381 -6.12821 15.90333 37.77804 -24.80098 8.18364 -30.71322 -9.21651 -3.94 -4.29426 35.17947 -6.92008 24.90538 -28.01851 -6.61965 0.33575 2.4242
-0.186 -0.0292 -0.16759 26.97118 -16.31744 4.86695 41.86056 2.94761 6.25182 -10.97322 -17.66508 -2.11955 -60.7703 -68.14171 38.50546 117.20752 105.19648 -34.14887 -5.81673 -8.67845 117.27945 -5.03098 24.87255 -100.71766 -6.08904 15.90517 37.90623 -24.77181 8.02833 -30.68717 -9.21521 -3.92643 -4.2868 35.31029 -6.84299 24.91218 -27.99908 -6.62769 0.33134 2.42269
-0.18678 -0.02919 -0.16693 26.96718 -16.39284 4.81976 41.73599 2.92713 6.20009 -11.03264 -17.65948 -2.11956 -59.53763 -68.67298 39.91343 117.24527 102.29545 -32.62851 -5.58676 -8.90197 117.32978 -4.79674 24.86117 -100.75663 -6.06461 15.89194 38.05662 -24.74334 7.87542 -30.664 -9.21702 -3.91302 -4.27933 35.4625 -6.76724 24.91562 -27.98132 -6.63483 0.3283 2.42171
-0.18753 -0.02916 -0.16625 26.96129 -16.4639 4.77461 41.61406 2.90632 6.14885 -11.09001 -17.65416 -2.11956 -58.4866 -69.13271 41.11849 117.28198 99.81517 -31.33819 -5.39084 -9.10299 117.36666 -4.60471 24.8585 -100.78632 -6.03592 15.88426 38.19809 -24.71436 7.72864 -30.63965 -9.21783 -3.89994 -4.2721 35.6061 -6.69445 24.914 -27.96275 -6.64173 0.32534 2.42082
-0.18829 -0.02913 -0.16554 26.96088 -16.5304 4.7221 41.48724 2.88322 6.08342 -11.1601 -17.6462 -2.11957 -57.14659 -69.71327 42.64543 117.32488 96.6719 -29.69045 -5.13333 -9.30611 117.41126 -4.41332 24.8487 -100.81818 -6.00616 15.88073 38.3338 -24.68549 7.5512 -30.61413 -9.21702 -3.88527 -4.26393 35.74526 -6.6066 24.93768 -27.94412 -6.65132 0.31948 2.41857
-0.18906 -0.02912 -0.16491 26.94873 -16.60928 4.68524 41.36887 2.86544 6.05089 -11.20187 -17.64468 -2.11957 -56.34269 -70.06702 43.57901 117.35456 94.75608 -28.70616 -4.99172 -9.51487 117.44478 -4.20181 24.84935 -100.83853 -5.97701 15.8643 38.48774 -24.65727 7.43758 -30.59204 -9.22018 -3.87378 -4.25762 35.89876 -6.55022 24.91069 -27.9261 -6.65523 0.31986 2.41921
-0.18986 -0.02918 -0.16447 26.90923 -16.71773 4.68846 41.28272 2.86096 6.09128 -11.17898 -17.65481 -2.11957 -57.14502 -69.74635 42.70168 117.34856 96.52372 -29.68373 -5.20061 -9.73577 117.44708 -3.92969 24.88965 -100.86451 -5.96553 15.83011 38.67877 -24.62501 7.50812 -30.5779 -9.23459 -3.87272 -4.25729 36.0857 -6.58314 24.72081 -27.90974 -6.64231 0.33853 2.4284
-0.19068 -0.02927 -0.16411 26.85695 -16.83858 4.70811 41.20377 2.86186 6.16746 -11.12526 -17.67257 -2.11957 -58.4835 -69.19883 41.23665 117.32923 99.51859 -31.33039 -5.52381 -9.95785 117.43566 -3.64771 24.93941 -100.86593 -5.94965 15.78098 38.88884 -24.59438 7.64142 -30.56733 -9.2527 -3.87455 -4.25867 36.28661 -6.64726 24.48401 -27.89393 -6.62392 0.36322 2.44037
-0.19149 -0.02935 -0.16372 26.80668 -16.95458 4.72264 41.11579 2.86098 6.23866 -11.07702 -17.69096 -2.11957 -59.53322 -68.77154 40.11082 117.31548 101.85011 -32.63695 -5.78125 -10.17462 117.4268 -3.38661 24.98062 -100.84397 -5.92157 15.73002 39.09535 -24.56685 7.74044 -30.55575 -9.26841 -3.87393 -4.2587 36.48146 -6.69525 24.28497 -27.87766 -6.60897 0.38423 2.45061
-0.1923 -0.02941 -0.1633 26.77186 -17.06714 4.72753 41.05119 2.85763 6.26371 -11.06461 -17.69225 -2.11957 -60.76361 -68.27505 38.69329 117.3034 104.60476 -34.08484 -6.09525 -10.4171 117.43567 -3.04569 25.04044 -100.96723 -5.95313 15.7157 39.28119 -24.52346 7.86351 -30.54174 -9.2872 -3.87807 -4.26112 36.67521 -6.75124 24.01852 -27.86227 -6.59007 0.40915 2.4628
-0.19313 -0.02951 -0.16296 26.70262 -17.19032 4.75603 40.94069 2.86035 6.39164 -10.97047 -17.73069 -2.11957 -61.7497 -67.86776 37.73617 117.28506 106.78051 -35.40098 -6.31952 -10.6009 117.40242 -2.87903 25.0624 -100.78453 -5.86041 15.62069 39.51427 -24.51307 7.95178 -30.53354 -9.30049 -3.87306 -4.25901 36.87508 -6.79828 23.87871 -27.84523 -6.57796 0.42748 2.47164
-0.19406 -0.02971 -0.16278 26.53474 -17.33382 4.84888 40.69271 2.88132 6.80931 -10.65635 -17.87193 -2.11957 -61.91811 -67.76067 38.22784 117.24947 107.02899 -36.19442 -6.26493 -10.66143 117.26944 -3.12114 24.99064 -99.73618 -5.41469 15.31511 39.87331 -24.59687 7.92498 -30.54117 -9.29708 -3.84131 -4.24361 37.0814 -6.8102 24.12331 -27.82274 -6.58719 0.42479 2.46987
-0.19502 -0.02994 -0.16268 26.33402 -17.48857 4.96428 40.3999 2.90762 7.32644 -10.26143 -18.04972 -2.11957 -61.82531 -67.75121 39.1957 117.20862 106.66006 -36.8326 -6.11703 -10.65444 117.09179 -3.55506 24.87801 -98.38527 -4.84589 14.92721 40.27895 -24.71308 7.86173 -30.55439 -9.28813 -3.80044 -4.22368 37.29448 -6.81244 24.4929 -27.79867 -6.60324 0.41545 2.46472
-0.19596 -0.03014 -0.16254 26.15265 -17.64211 5.06736 40.13363 2.92972 7.78876 -9.90467 -18.20967 -2.11958 -61.86157 -67.69739 39.92179 117.17233 106.59626 -37.54068 -6.01393 -10.6536 116.92599 -3.94864 24.7756 -97.19053 -4.34059 14.57159 40.66322 -24.81225 7.81742 -30.56461 -9.28207 -3.76422 -4.20606 37.50914 -6.82102 24.7897 -27.77585 -6.61532 0.41006 2.46156
